<svg version="1.1" xmlns="http://www.w3.org/2000/svg" xmlns:xlink="http://www.w3.org/1999/xlink" width="800px" height="800px" viewBox="0,0,256,256"><g fill="none" fill-rule="nonzero" stroke="#37c3bf" stroke-width="2" stroke-linecap="round" stroke-linejoin="round" stroke-miterlimit="10" stroke-dasharray="" stroke-dashoffset="0" font-family="none" font-weight="none" font-size="none" text-anchor="none" style="mix-blend-mode: normal"><g transform="scale(10.66667,10.66667)"><path d="M5,9h14M15,18v-3M9,18h0.01M12,18h0.01M12,15h0.01M9,15h0.01M15,12h0.01M12,12h0.01M9,12h0.01M8.2,21h7.6c1.1201,0 1.6802,0 2.108,-0.218c0.3763,-0.1917 0.6823,-0.4977 0.874,-0.874c0.218,-0.4278 0.218,-0.9879 0.218,-2.108v-11.6c0,-1.1201 0,-1.68016 -0.218,-2.10798c-0.1917,-0.37633 -0.4977,-0.68229 -0.874,-0.87403c-0.4278,-0.21799 -0.9879,-0.21799 -2.108,-0.21799h-7.6c-1.1201,0 -1.68016,0 -2.10798,0.21799c-0.37633,0.19174 -0.68229,0.4977 -0.87403,0.87403c-0.21799,0.42782 -0.21799,0.98787 -0.21799,2.10798v11.6c0,1.1201 0,1.6802 0.21799,2.108c0.19174,0.3763 0.4977,0.6823 0.87403,0.874c0.42782,0.218 0.98787,0.218 2.10798,0.218z"></path></g></g></svg>