<svg version="1.1" xmlns="http://www.w3.org/2000/svg" xmlns:xlink="http://www.w3.org/1999/xlink" width="800px" height="800px" viewBox="0,0,256,256"><g fill="none" fill-rule="nonzero" stroke="none" stroke-width="1" stroke-linecap="butt" stroke-linejoin="miter" stroke-miterlimit="10" stroke-dasharray="" stroke-dashoffset="0" font-family="none" font-weight="none" font-size="none" text-anchor="none" style="mix-blend-mode: normal"><g><g><rect x="0" y="0" width="256" height="256" rx="28" ry="0" fill="#37c3bf"></rect><path d="M186.37701,94.19764v66.22684c0,22.81881 -1.66949,33.76327 -6.67798,43.22493c-4.63868,9.09186 -10.76135,14.84114 -23.37531,21.14932l-26.52879,-12.61515c12.61515,-5.93598 18.73663,-11.12876 22.63211,-19.10882c4.08218,-8.16197 5.38187,-17.62363 5.38187,-42.48173v-56.39538zM140.92849,50.07872v132.23827c-14.65564,2.78249 -25.4158,3.89549 -37.10225,3.89549c-34.87746,0 -53.05759,-15.76744 -53.05759,-46.00742c0,-29.12578 19.29432,-48.04671 49.16091,-48.04671c4.63748,0 8.16197,0.3698 12.42965,1.4828v-43.56242zM102.71324,115.16025c-14.47014,0 -22.81881,8.90516 -22.81881,24.48711c0,15.21334 7.97767,23.56081 22.63331,23.56081c3.15229,0 5.75048,-0.1855 9.83146,-0.7408v-45.82431c-3.33899,-1.1118 -6.12148,-1.4828 -9.64596,-1.4828zM186.37701,50.23071v29.31128h-28.56809v-29.31128z" fill="#fffffd"></path></g></g></g></svg>