<svg version="1.1" xmlns="http://www.w3.org/2000/svg" xmlns:xlink="http://www.w3.org/1999/xlink" width="800px" height="800px" viewBox="0,0,256,256"><g fill="none" fill-rule="nonzero" stroke="none" stroke-width="1" stroke-linecap="butt" stroke-linejoin="miter" stroke-miterlimit="10" stroke-dasharray="" stroke-dashoffset="0" font-family="none" font-weight="none" font-size="none" text-anchor="none" style="mix-blend-mode: normal"><g transform="scale(0.25,0.25)"><circle cx="512" cy="512" r="512" fill="#37c3bf"></circle><path transform="translate(428.423,184.256)" d="M81.7,73.2c-129.9,0 -121.8,56.3 -121.8,56.3l0.1,58.4h124v17.5h-173.2c0,0 -83.1,-9.4 -83.1,121.7c0,131.1 72.6,126.4 72.6,126.4h43.3v-60.8c0,0 -2.3,-72.6 71.4,-72.6h123c0,0 69.1,1.1 69.1,-66.8v-112.2c0,0 10.4,-67.9 -125.4,-67.9zM13.4,112.5c12.3,0 22.3,10 22.3,22.3c0,12.3 -10,22.3 -22.3,22.3c-12.3,0 -22.3,-10 -22.3,-22.3c0,-12.3 9.9,-22.3 22.3,-22.3zM85.4,582.3c129.9,0 121.8,-56.3 121.8,-56.3l-0.1,-58.4h-124v-17.5h173.2c0,0 83.1,9.4 83.1,-121.7c0,-131.1 -72.6,-126.4 -72.6,-126.4h-43.3v60.8c0,0 2.3,72.6 -71.4,72.6h-123c0,0 -69.1,-1.1 -69.1,66.8v112.2c0,0 -10.3,67.9 125.4,67.9zM153.8,543c-12.3,0 -22.3,-10 -22.3,-22.3c0,-12.3 10,-22.3 22.3,-22.3c12.3,0 22.3,10 22.3,22.3c0,12.4 -10,22.3 -22.3,22.3z" fill="#ffffff"></path></g></g></svg>