<svg version="1.1" xmlns="http://www.w3.org/2000/svg" xmlns:xlink="http://www.w3.org/1999/xlink" width="800px" height="800px" viewBox="0,0,256,256"><g fill="#37c3bf" fill-rule="nonzero" stroke="none" stroke-width="1" stroke-linecap="butt" stroke-linejoin="miter" stroke-miterlimit="10" stroke-dasharray="" stroke-dashoffset="0" font-family="none" font-weight="none" font-size="none" text-anchor="none" style="mix-blend-mode: normal"><g transform="translate(-0.00032,0) scale(0.63219,0.63219)"><g><path d="M391.691,18.284h-378.441c-7.318,0 -13.25,5.935 -13.25,13.252v242.48c0,7.32 5.932,13.252 13.25,13.252h202.674v86.137c0,5.359 3.229,10.193 8.182,12.244c1.639,0.68 3.359,1.01 5.066,1.01c3.446,0 6.838,-1.348 9.372,-3.883l96.173,-95.508h56.975c7.32,0 13.252,-5.932 13.252,-13.252v-242.481c-0.001,-7.317 -5.932,-13.251 -13.253,-13.251zM175.97,201.459c-10.755,13.695 -26.845,20.934 -46.529,20.934c-7.818,0 -14.155,-6.336 -14.155,-14.154c0,-7.817 6.337,-14.155 14.155,-14.155c11.138,0 18.846,-3.212 24.261,-10.107c5.248,-6.687 7.92,-16.295 9.033,-26.546h-35.311c-5.862,0 -10.616,-4.754 -10.616,-10.617v-45.647c0,-5.864 4.754,-10.617 10.616,-10.617h45.648c6.529,0 12.473,5.72 13.752,10.963c0.16,0.658 3.947,16.335 4.767,35.868c1.171,27.824 -4.086,49.383 -15.621,64.078zM273.875,201.459c-10.752,13.695 -26.842,20.934 -46.529,20.934c-7.817,0 -14.153,-6.336 -14.153,-14.154c0,-7.817 6.336,-14.155 14.153,-14.155c11.14,0 18.85,-3.212 24.263,-10.107c5.249,-6.687 7.919,-16.295 9.032,-26.546h-35.31c-5.864,0 -10.614,-4.754 -10.614,-10.617v-45.647c0,-5.864 4.75,-10.617 10.614,-10.617h45.649c6.527,0 12.471,5.72 13.75,10.963c0.162,0.658 3.945,16.335 4.77,35.868c1.168,27.824 -4.086,49.383 -15.625,64.078z"></path></g></g></g></svg>