<svg version="1.1" xmlns="http://www.w3.org/2000/svg" xmlns:xlink="http://www.w3.org/1999/xlink" width="800px" height="800px" viewBox="0,0,256,256"><g fill="none" fill-rule="nonzero" stroke="none" stroke-width="1" stroke-linecap="butt" stroke-linejoin="miter" stroke-miterlimit="10" stroke-dasharray="" stroke-dashoffset="0" font-family="none" font-weight="none" font-size="none" text-anchor="none" style="mix-blend-mode: normal"><g transform="scale(8,8)"><rect x="10" y="16" width="12" height="2" fill="#37c3bf"></rect><rect x="10" y="20" width="8" height="2" fill="#37c3bf"></rect><path d="M16,7v0c3.83709,0.00536 7.13329,2.7268 7.8649,6.4935l0.2591,1.346l1.3488,0.244c2.80145,0.50505 4.75507,3.06363 4.50436,5.89918c-0.25071,2.83555 -2.62295,5.01165 -5.46956,5.01732h-17.0122c-2.84742,-0.00347 -5.22174,-2.17892 -5.47363,-5.01518c-0.25189,-2.83626 1.70189,-5.3961 4.50413,-5.90132l1.3488,-0.244l0.2591,-1.346c0.73253,-3.76669 4.02895,-6.48786 7.8662,-6.4935M16,5c-4.79618,0.00525 -8.91669,3.40708 -9.83,8.1155c-3.82005,0.68949 -6.4832,4.17927 -6.14001,8.04585c0.34318,3.86657 3.57934,6.83275 7.46111,6.83865h17.0165c3.88181,-0.0058 7.11806,-2.97195 7.4613,-6.83855c0.34324,-3.86661 -2.31992,-7.35644 -6.14,-8.04595c-0.91353,-4.71266 -5.04022,-8.11592 -9.8406,-8.1155z" fill="#37c3bf"></path><rect x="0" y="0" width="32" height="32" id="_Transparent_Rectangle_" fill="none"></rect></g></g></svg>