<svg version="1.1" xmlns="http://www.w3.org/2000/svg" xmlns:xlink="http://www.w3.org/1999/xlink" width="800px" height="800px" viewBox="0,0,256,256"><g transform="translate(25.6,25.6) scale(0.8,0.8)"><g fill="#ffffff" fill-rule="nonzero" stroke="none" stroke-width="1" stroke-linecap="butt" stroke-linejoin="miter" stroke-miterlimit="10" stroke-dasharray="" stroke-dashoffset="0" font-family="none" font-weight="none" font-size="none" text-anchor="none" style="mix-blend-mode: normal"><path d="M-32,288v-320h320v320z" id="bgRectangle"></path></g><g fill="none" fill-rule="nonzero" stroke="none" stroke-width="1" stroke-linecap="butt" stroke-linejoin="miter" stroke-miterlimit="10" stroke-dasharray="" stroke-dashoffset="0" font-family="none" font-weight="none" font-size="none" text-anchor="none" style="mix-blend-mode: normal"><g><g fill="#ebf9f8"><path d="M0,256v-256h256v256z" id="bgRectangle"></path></g><g><g transform="scale(12.8,12.8)"><rect x="0" y="0" width="20" height="20" fill="none"></rect><g fill="#37c3bf"><path d="M18,18v-16h-16v16zM16,5h-12v-1h12zM7,7v3h3c0,1.66 -1.34,3 -3,3c-1.66,0 -3,-1.34 -3,-3c0,-1.66 1.34,-3 3,-3zM8,9v-2c1.1,0 2,0.9 2,2zM16,8h-4v-1h4zM16,11h-4v-2h4zM16,13h-4v-1h4zM16,16h-12v-1h12z"></path></g></g></g></g></g></g></svg>