<svg version="1.1" xmlns="http://www.w3.org/2000/svg" xmlns:xlink="http://www.w3.org/1999/xlink" width="800px" height="800px" viewBox="0,0,256,256"><g fill="#37c3bf" fill-rule="evenodd" stroke="none" stroke-width="1" stroke-linecap="butt" stroke-linejoin="miter" stroke-miterlimit="10" stroke-dasharray="" stroke-dashoffset="0" font-family="none" font-weight="none" font-size="none" text-anchor="none" style="mix-blend-mode: normal"><g transform="translate(0,0) scale(10.66667,10.66667)"><path d="M4.86997,12.32786c1.56987,-0.44323 3.20931,0.45155 3.65946,1.99726c0.45015,1.54571 -0.4586,3.15992 -2.02847,3.60315c-0.52215,0.14742 -1.0484,0.14381 -1.54198,0.02297l-0.16326,-0.04458l-1.55381,2.76001l-1.03197,-0.56323l1.55218,-2.76561c-0.42462,-0.35893 -0.75426,-0.83558 -0.92062,-1.40682c-0.45015,-1.54571 0.4586,-3.15992 2.02847,-3.60315zM13.53846,18.48118v1.51479h-3.07692v-1.51479zM16.61538,15.45161v1.51479h-6.15385v-1.51479zM7.39185,14.6463c-0.26911,-0.92407 -1.25717,-1.46333 -2.19568,-1.19835c-0.93851,0.26497 -1.4862,1.23782 -1.21708,2.16189c0.26911,0.92407 1.25717,1.46333 2.19568,1.19835c0.93851,-0.26497 1.4862,-1.23782 1.21708,-2.16189zM19.69231,12.42204v1.51479h-9.23077v-1.51479zM22,9.39247v1.51479h-20v-1.51479zM22,6.3629v1.51479h-20v-1.51479zM11.27885,3.33333v1.51479h-6.97115v-1.51479zM19.69231,3.33333v1.51479h-6.97115v-1.51479z"></path></g></g></svg>