<svg version="1.1" xmlns="http://www.w3.org/2000/svg" xmlns:xlink="http://www.w3.org/1999/xlink" width="800px" height="800px" viewBox="0,0,256,256"><g transform=""><g fill="none" fill-rule="nonzero" stroke="none" stroke-width="1" stroke-linecap="butt" stroke-linejoin="miter" stroke-miterlimit="10" stroke-dasharray="" stroke-dashoffset="0" font-family="none" font-weight="none" font-size="none" text-anchor="none" style="mix-blend-mode: normal"><g><g transform="translate(12.8,12.8) scale(0.9,0.9)"><g fill="#ffffff"><path d="M-14.22222,270.22222v-284.44444h284.44444v284.44444z" id="bgRectangle"></path></g><g><g transform="translate(-0.00975,0.00148) scale(8,8)"><path d="M16.018,30c-5.68218,0.00673 -10.80483,-3.42168 -12.96522,-8.67715c-2.16038,-5.25547 -0.92993,-11.29547 3.11421,-15.28697c4.04415,-3.9915 10.09974,-5.14271 15.32646,-2.91366c5.22672,2.22905 8.58771,7.39618 8.50654,13.07779c-0.10925,7.64677 -6.33446,13.79095 -13.982,13.8z" fill="#37c3bf"></path><path d="M9.17,22.63c0.026,0.061 0.046,0.124 0.077,0.183c2.215,4.206 7.738,4.616 10.756,2.454c1.40672,-0.87605 2.38985,-2.2935 2.71747,-3.918c0.32762,-1.6245 -0.02926,-3.3122 -0.98647,-4.665c-0.39878,-0.60678 -0.83917,-1.18517 -1.318,-1.731c-0.881,-1.067 -1.755,-2.14 -2.636,-3.207c-0.366,-0.443 -0.767,-0.835 -1.416,-0.683c-0.50542,0.07957 -0.92654,0.4298 -1.09689,0.91226c-0.17035,0.48245 -0.06251,1.01946 0.28089,1.39874c0.888,1.106 1.819,2.177 2.7,3.286c1.10052,1.1976 1.33578,2.95511 0.589,4.4c-0.90267,1.93939 -2.86109,3.16692 -5,3.134c-1.69914,0.09996 -3.3712,-0.46038 -4.667,-1.564z" fill="#ebf9f8"></path><path d="M22.494,9.609c0.08,-0.248 -0.066,-0.37 -0.141,-0.509c-2.00273,-3.35713 -6.25344,-4.60493 -9.753,-2.863c-3.3,1.63 -5.1,5.352 -2.637,9.147c1.27773,1.78552 2.65841,3.49508 4.135,5.12c0.17997,0.20612 0.43574,0.33058 0.709,0.345c0.59111,0.07932 1.16655,-0.22895 1.428,-0.765c0.28962,-0.48369 0.21869,-1.10153 -0.173,-1.507c-0.876,-1.051 -1.769,-2.088 -2.615,-3.162c-1.48065,-1.69107 -1.33711,-4.25572 0.323,-5.771c1.61397,-1.64691 4.02337,-2.23394 6.214,-1.514c0.96071,0.24325 1.8317,0.75647 2.51,1.479z" fill="#ebf9f8"></path></g></g></g></g></g></g></svg>