<svg version="1.1" xmlns="http://www.w3.org/2000/svg" xmlns:xlink="http://www.w3.org/1999/xlink" width="800px" height="800px" viewBox="0,0,256,256"><g fill="#37c3bf" fill-rule="nonzero" stroke="none" stroke-width="1" stroke-linecap="butt" stroke-linejoin="miter" stroke-miterlimit="10" stroke-dasharray="" stroke-dashoffset="0" font-family="none" font-weight="none" font-size="none" text-anchor="none" style="mix-blend-mode: normal"><g transform="translate(5.87679,0.0003) scale(3.65714,3.65714)"><path transform="translate(97.599,-474.268)" d="M-68.25604,544.14439c-3.2225,-0.64097 -6.0047,-2.84478 -7.3573,-5.82793c-0.595,-1.31236 -0.8482,-2.55217 -0.8438,-4.13316c0.012,-4.5438 2.8692,-8.33798 7.3079,-9.70579c0.8177,-0.25196 1.3573,-0.31847 2.611,-0.32182c0.8692,-0.002 1.8277,0.0437 2.1301,0.10227l0.5497,0.10649l0.6765,-1.31365c1.3815,-2.68242 3.5345,-4.78981 6.3178,-6.18379c2.2961,-1.15 3.739,-1.48443 6.4043,-1.48443c1.8668,0 2.2999,0.045 3.5043,0.36412c5.2011,1.37813 9.255,5.45998 10.5309,10.60353c0.3195,1.2879 0.4789,4.17568 0.293,5.30849l-0.1269,0.77355l0.7284,0.163c1.8256,0.40854 3.4011,1.68396 4.2066,3.40532c0.7966,1.70226 0.6508,3.90495 -0.3651,5.51414c-0.5185,0.82136 -1.535,1.73424 -2.3832,2.14031c-0.4348,0.20813 -0.8979,0.43475 -1.0292,0.50361c-0.2947,0.15465 -32.3751,0.14085 -33.155,-0.0143zM-34.90504,542.24563c0.9026,-0.44879 1.7953,-1.45217 2.1662,-2.43497c0.7697,-2.03891 -0.2571,-4.40792 -2.3055,-5.31934c-0.5173,-0.23017 -0.9037,-0.28342 -1.9824,-0.27321c-0.737,0.007 -1.3399,-0.0395 -1.3399,-0.10328c0,-0.0638 0.1369,-0.66194 0.3042,-1.32926c0.428,-1.70717 0.4237,-4.42927 -0.01,-6.09178c-0.9556,-3.66584 -3.4332,-6.72357 -6.8221,-8.4192c-1.4892,-0.74512 -2.9056,-1.08594 -4.841,-1.16493c-2.8639,-0.11687 -4.8633,0.33445 -7.0666,1.59507c-2.5693,1.47003 -4.784,4.13385 -5.6425,6.78661c-0.1651,0.51018 -0.3653,0.9268 -0.4449,0.92583c-0.08,-0.00096 -0.5467,-0.13408 -1.038,-0.29579c-1.3668,-0.44991 -3.6978,-0.42255 -5.0619,0.0594c-1.3731,0.48513 -2.3616,1.10694 -3.3908,2.13292c-1.5427,1.53788 -2.3996,3.63391 -2.3996,5.86959c0,3.32007 1.8288,6.23059 4.8041,7.64574c1.71,0.81331 1.1183,0.78892 18.4849,0.76186l15.941,-0.0248l0.6444,-0.32043zM-80.89884,535.81987c-5.7671,-0.78155 -10.2061,-2.22963 -13.4896,-4.40056c-1.3548,-0.89576 -2.2902,-1.89766 -2.8176,-3.01787l-0.3929,-0.83466l0.036,-22.59585l0.036,-22.59585l0.3281,-0.61562c0.8294,-1.55619 2.4465,-2.88407 5.0211,-4.12288c3.2554,-1.56646 7.0095,-2.54578 12.2408,-3.19328c2.1543,-0.26664 9.47,-0.21948 11.6809,0.0753c8.1415,1.08546 14.4594,3.74551 16.4734,6.93577c0.7936,1.25717 0.7731,0.80148 0.7731,17.22791v15.08135l-0.4466,0.0692c-0.2456,0.038 -0.8021,0.10712 -1.2366,0.15352c-4.4834,0.47873 -9.1329,3.57818 -11.5162,7.67699l-0.488,0.8391l-1.9169,0.0905c-2.265,0.10697 -3.4191,0.39711 -5.1411,1.29243c-2.9567,1.53725 -5.0699,4.20232 -5.9316,7.48077c-0.238,0.90554 -0.3084,1.56192 -0.3132,2.92023l-0.01,1.75213l-0.7594,-0.0162c-0.4176,-0.009 -1.3777,-0.1 -2.1335,-0.20243zM-69.17494,514.99277c-1.0818,-0.91805 -2.0174,-1.7137 -2.0791,-1.7681c-0.062,-0.0544 0.1631,-0.2602 0.4994,-0.45733c0.7458,-0.43708 1.7061,-1.48313 2.1139,-2.30274c0.9965,-2.00287 0.9743,-4.49403 -0.058,-6.47634c-1.135,-2.1802 -3.5103,-3.3239 -6.2014,-2.986c-1.4735,0.18503 -2.3966,0.59832 -3.3701,1.50899c-1.5366,1.4374 -2.0688,2.84774 -1.988,5.26837c0.046,1.37622 0.095,1.62372 0.4886,2.45901c0.8471,1.79787 2.6182,3.14163 4.4225,3.35531c0.6788,0.0804 0.7377,0.1249 2.0865,1.57538l1.3881,1.49264h2.3321h2.3322l-1.9669,-1.66919zM-75.05994,510.30617c-0.9451,-0.47951 -1.304,-1.30103 -1.304,-2.98527c0,-1.09589 0.053,-1.41584 0.3224,-1.96387c0.4309,-0.875 1.29,-1.40105 2.1328,-1.30604c0.829,0.0934 1.2599,0.42875 1.6984,1.32149c0.3327,0.67762 0.3808,0.93439 0.3769,2.01347c0,1.33108 -0.2403,2.01354 -0.9098,2.63622c-0.6994,0.65058 -1.42,0.73892 -2.3167,0.284zM-84.56924,513.49591c2.485,-0.57319 3.8348,-2.65434 3.1192,-4.80889c-0.3603,-1.0849 -1.1219,-1.76252 -2.9819,-2.65327c-0.859,-0.41138 -1.6272,-0.83198 -1.7071,-0.93468c-0.3128,-0.40184 -0.3121,-0.66784 0,-1.03351c0.484,-0.56269 1.5858,-0.5896 3.0776,-0.0752l1.138,0.39245l-0.039,-1.51877l-0.039,-1.51878l-0.7558,-0.17965c-1.143,-0.2717 -3.6136,-0.2584 -4.5856,0.0247c-1.949,0.56765 -2.976,1.84152 -2.9696,3.68323c0.01,1.89537 0.8605,2.79385 3.8676,4.06981c1.2722,0.53982 1.4179,1.54865 0.2807,1.94362c-0.5263,0.18278 -0.6761,0.17922 -1.5089,-0.0358c-0.5086,-0.13132 -1.2802,-0.42314 -1.7148,-0.64849l-0.7902,-0.40974v1.64418v1.64418l0.7902,0.21996c0.4346,0.12098 0.852,0.2415 0.9276,0.26783c0.3141,0.10941 3.3435,0.0524 3.8879,-0.0732zM-58.01804,512.05831v-1.44294h-2.1988h-2.1987v-4.74107v-4.74107h-1.7865h-1.7865v6.18401v6.184h3.9853h3.9852zM-68.59954,487.3168c3.5835,-0.41532 6.5241,-1.16648 8.3827,-2.14132c1.2211,-0.64044 1.5139,-0.87116 1.9833,-1.56285c1.4515,-2.13894 -1.7987,-4.28958 -8.0986,-5.35876c-5.9187,-1.0045 -13.7186,-0.77727 -18.7108,0.54509c-10.3005,2.7285 -6.2399,7.74058 7.0717,8.7287c2.1847,0.16217 7.109,0.0514 9.3717,-0.21086z"></path></g></g></svg>